<svg xmlns="http://www.w3.org/2000/svg" width="27.487" height="24.051" viewBox="0 0 27.487 24.051">
  <path id="bars-solid" d="M.982,64.418H26.505a.982.982,0,0,0,.982-.982V60.982A.982.982,0,0,0,26.505,60H.982A.982.982,0,0,0,0,60.982v2.454A.982.982,0,0,0,.982,64.418Zm0,9.817H26.505a.982.982,0,0,0,.982-.982V70.8a.982.982,0,0,0-.982-.982H.982A.982.982,0,0,0,0,70.8v2.454A.982.982,0,0,0,.982,74.234Zm0,9.817H26.505a.982.982,0,0,0,.982-.982V80.615a.982.982,0,0,0-.982-.982H.982A.982.982,0,0,0,0,80.615v2.454A.982.982,0,0,0,.982,84.051Z" transform="translate(0 -60)" fill="#fff"/>
</svg>
