<svg xmlns="http://www.w3.org/2000/svg" width="37.539" height="29.192" viewBox="0 0 37.539 29.192">
  <path id="home-solid" d="M18.257,39.623l-12.015,9.9V60.2a1.043,1.043,0,0,0,1.043,1.043l7.3-.019a1.043,1.043,0,0,0,1.037-1.043V53.943A1.043,1.043,0,0,1,16.667,52.9h4.171a1.043,1.043,0,0,1,1.043,1.043v6.233a1.043,1.043,0,0,0,1.043,1.046l7.3.02A1.043,1.043,0,0,0,31.266,60.2V49.512L19.254,39.623a.794.794,0,0,0-1,0Zm18.979,6.726-5.448-4.491V32.832a.782.782,0,0,0-.782-.782H27.356a.782.782,0,0,0-.782.782v4.732l-5.834-4.8a3.128,3.128,0,0,0-3.975,0L.269,46.349a.782.782,0,0,0-.1,1.1l1.662,2.02a.782.782,0,0,0,1.1.106L18.257,36.951a.794.794,0,0,1,1,0L34.583,49.577a.782.782,0,0,0,1.1-.1l1.662-2.02a.782.782,0,0,0-.111-1.1Z" transform="translate(0.015 -32.05)" fill="#c743a8"/>
</svg>
