<svg xmlns="http://www.w3.org/2000/svg" width="30.851" height="23.511" viewBox="0 0 30.851 23.511">
  <path id="sign-out-alt-solid" d="M30.424,76.774,20.14,87.059a1.472,1.472,0,0,1-2.51-1.041V80.141H9.3a1.466,1.466,0,0,1-1.469-1.469V72.8A1.466,1.466,0,0,1,9.3,71.326H17.63V65.449a1.472,1.472,0,0,1,2.51-1.041L30.424,74.693A1.482,1.482,0,0,1,30.424,76.774ZM11.753,86.752V84.3a.737.737,0,0,0-.735-.735H5.877A1.957,1.957,0,0,1,3.918,81.61V69.857A1.957,1.957,0,0,1,5.877,67.9h5.142a.737.737,0,0,0,.735-.735V64.715a.737.737,0,0,0-.735-.735H5.877A5.878,5.878,0,0,0,0,69.857V81.61a5.878,5.878,0,0,0,5.877,5.877h5.142A.737.737,0,0,0,11.753,86.752Z" transform="translate(0 -63.979)" fill="#fff"/>
</svg>
